<svg xmlns="http://www.w3.org/2000/svg" xmlns:xlink="http://www.w3.org/1999/xlink" width="1200" height="1200" preserveAspectRatio="xMidYMid meet" viewBox="0 0 1200 1200" style="-ms-transform: rotate(360deg); -webkit-transform: rotate(360deg); transform: rotate(360deg);"><path d="M600 0C268.63 0 0 268.63 0 600s268.63 600 600 600c331.369 0 600-268.631 600-600C1200 268.63 931.369 0 600 0zm0 1069.565c-259.37 0-469.565-210.261-469.565-469.565S340.63 130.435 600 130.435c259.369 0 469.565 210.261 469.565 469.565S859.369 1069.565 600 1069.565zm117.392-720.652H482.608v266.739H335.87L600 864.13l264.13-248.478H717.391l.001-266.739z" fill="#626262"/><rect x="0" y="0" width="1200" height="1200" fill="rgba(0, 0, 0, 0)" /></svg>